<svg width="215" height="111" viewBox="0 0 215 111" fill="none" xmlns="http://www.w3.org/2000/svg">
<rect width="110" height="29" rx="4" fill="#D60B52"/>
<path d="M9.273 21V7.757H11.8L17.975 17.789H17.367V7.757H19.818V21H17.272L11.116 10.949H11.724V21H9.273ZM28.1866 21.304C26.9326 21.304 25.8243 21.019 24.8616 20.449C23.9116 19.8663 23.1706 19.0557 22.6386 18.017C22.1066 16.9783 21.8406 15.7687 21.8406 14.388C21.8406 12.9947 22.1066 11.7787 22.6386 10.74C23.1706 9.70133 23.9116 8.897 24.8616 8.327C25.8243 7.74433 26.9326 7.453 28.1866 7.453C29.4533 7.453 30.5616 7.74433 31.5116 8.327C32.4743 8.897 33.2216 9.70133 33.7536 10.74C34.2856 11.7787 34.5516 12.9947 34.5516 14.388C34.5516 15.7687 34.2793 16.9783 33.7346 18.017C33.2026 19.0557 32.4553 19.8663 31.4926 20.449C30.5426 21.019 29.4406 21.304 28.1866 21.304ZM28.1676 18.948C28.9783 18.948 29.6686 18.7643 30.2386 18.397C30.8213 18.017 31.2709 17.485 31.5876 16.801C31.9043 16.117 32.0626 15.3127 32.0626 14.388C32.0626 13.4507 31.9043 12.64 31.5876 11.956C31.2709 11.272 30.8213 10.7463 30.2386 10.379C29.6686 9.999 28.9783 9.809 28.1676 9.809C27.3949 9.809 26.7109 9.99267 26.1156 10.36C25.5329 10.7273 25.0833 11.253 24.7666 11.937C24.4626 12.621 24.3106 13.438 24.3106 14.388C24.3106 15.3253 24.4626 16.136 24.7666 16.82C25.0833 17.504 25.5329 18.0297 26.1156 18.397C26.7109 18.7643 27.3949 18.948 28.1676 18.948ZM40.1351 21L34.8341 7.757H37.5321L41.4651 17.979H40.6861L44.5431 7.757H47.2601L41.9781 21H40.1351ZM48.7017 21V7.757H51.1527V21H48.7017ZM53.6929 21V7.757H57.5499C59.7539 7.757 61.4576 8.33967 62.6609 9.505C63.8643 10.6703 64.4659 12.3297 64.4659 14.483C64.4659 16.5857 63.8706 18.2007 62.6799 19.328C61.4893 20.4427 59.7729 21 57.5309 21H53.6929ZM56.1439 18.739H57.2839C58.2846 18.739 59.1333 18.6123 59.8299 18.359C60.5266 18.1057 61.0586 17.6623 61.4259 17.029C61.8059 16.3957 61.9959 15.5153 61.9959 14.388C61.9959 13.2987 61.8123 12.4373 61.4449 11.804C61.0903 11.158 60.5773 10.702 59.9059 10.436C59.2473 10.1573 58.4493 10.018 57.5119 10.018H56.1439V18.739ZM64.7624 21L70.0824 7.757H71.9254L77.2454 21H74.5664L71.0324 11.386L67.4414 21H64.7624ZM68.2584 18.416L69.0184 16.212H73.0084L73.8064 18.416H68.2584ZM78.6861 21V7.757H82.5431C84.7471 7.757 86.4508 8.33967 87.6541 9.505C88.8574 10.6703 89.4591 12.3297 89.4591 14.483C89.4591 16.5857 88.8638 18.2007 87.6731 19.328C86.4824 20.4427 84.7661 21 82.5241 21H78.6861ZM81.1371 18.739H82.2771C83.2778 18.739 84.1264 18.6123 84.8231 18.359C85.5198 18.1057 86.0518 17.6623 86.4191 17.029C86.7991 16.3957 86.9891 15.5153 86.9891 14.388C86.9891 13.2987 86.8054 12.4373 86.4381 11.804C86.0834 11.158 85.5704 10.702 84.8991 10.436C84.2404 10.1573 83.4424 10.018 82.5051 10.018H81.1371V18.739ZM91.4888 21V7.757H100.305V9.961H93.9398V13.115H99.8868V15.3H93.9398V18.796H100.305V21H91.4888Z" fill="white"/>
<g clip-path="url(#clip0_3229_12977)">
<path d="M80.367 79.9595C78.903 79.9595 77.7812 78.8949 77.7812 77.384C77.7812 75.8732 78.9052 74.8086 80.367 74.8086C81.8289 74.8086 82.9551 75.8732 82.9551 77.384C82.9551 78.8949 81.8064 79.9595 80.367 79.9595ZM80.367 75.3273C79.207 75.3273 78.3353 76.1654 78.3353 77.3818C78.3353 78.5982 79.207 79.4363 80.367 79.4363C81.5271 79.4363 82.374 78.5982 82.374 77.3818C82.374 76.1654 81.5045 75.3273 80.367 75.3273ZM81.2005 78.981L80.3806 77.7238H80.0022V78.9674H79.3962V75.7939H80.3806C80.8986 75.7939 81.4167 76.1631 81.4167 76.7589C81.4167 77.1258 81.2275 77.4067 80.9617 77.5585L81.7073 78.6367L81.2027 78.981H81.2005ZM80.2927 76.3285H80.0022V77.1915H80.2927C80.6216 77.1915 80.8108 77.0262 80.8108 76.7611C80.8108 76.4961 80.6216 76.3308 80.2927 76.3308V76.3285Z" fill="#D60B52"/>
<path d="M8.93565 71.2819H9.98303C16.2696 71.2819 18.8396 67.4516 18.8396 62.6155V61.6098C18.8396 57.3491 17.4093 55.2425 14.2694 52.3205L9.69922 48.1074C7.79366 46.336 7.07963 45.3303 7.07963 43.2215V42.8862C7.07963 40.8272 7.93556 40.014 9.79383 40.014C11.5079 40.014 12.3661 40.8748 12.3661 43.0312V45.4798C12.3661 46.0325 12.8121 46.481 13.3617 46.481H17.4679C18.0175 46.481 18.4635 46.0325 18.4635 45.4798V41.7876C18.4635 37.1419 15.4632 34.8926 10.2736 34.8926H9.27351C3.60187 34.8881 0.648915 37.3774 0.648915 42.7888V43.7945C0.648915 47.7223 2.17382 50.0667 4.98261 52.6059L9.60237 56.7715C11.5057 58.4952 12.2693 59.6912 12.2693 62.0379V62.423C12.2693 64.7198 11.3165 65.8705 9.46047 65.8705C7.60445 65.8705 6.60212 64.9124 6.60212 62.9485V59.0661C6.60212 58.5134 6.15613 58.0649 5.60654 58.0649H1.40574C0.85614 58.0649 0.410156 58.5134 0.410156 59.0661V64.0992C0.410156 68.6974 3.36311 71.2819 8.93339 71.2819H8.93565Z" fill="white"/>
<path d="M22.3921 70.8987H36.4135C36.9631 70.8987 37.4091 70.4502 37.4091 69.8975V66.1986C37.4091 65.6459 36.9631 65.1974 36.4135 65.1974H27.5884V55.3327H34.5575C35.1071 55.3327 35.5531 54.8842 35.5531 54.3315V50.6326C35.5531 50.0799 35.1071 49.6314 34.5575 49.6314H27.5884V40.82H36.4135C36.9631 40.82 37.4091 40.3715 37.4091 39.8188V36.2649C37.4091 35.7122 36.9631 35.2637 36.4135 35.2637H22.3921C21.8425 35.2637 21.3965 35.7122 21.3965 36.2649V69.8907C21.3965 70.4434 21.8425 70.8919 22.3921 70.8919V70.8987Z" fill="white"/>
<path d="M56.1763 36.1118L52.3831 56.8287L48.59 36.1118C48.4999 35.6248 48.0787 35.2715 47.5877 35.2715H40.9813C40.4182 35.2715 39.9609 35.7313 39.9609 36.2976V69.8736C39.9609 70.4399 40.4182 70.8997 40.9813 70.8997H44.3172C44.8825 70.8997 45.3398 70.4376 45.3375 69.8691C45.3172 65.3252 45.2339 47.1566 45.2339 43.7748H45.3758C45.788 46.2007 49.5879 65.7828 50.419 70.0707C50.5136 70.5532 50.9326 70.8975 51.4191 70.8975H53.3449C53.8337 70.8975 54.2527 70.5509 54.345 70.0707C55.1784 65.7828 58.9783 46.2007 59.3882 43.7748H59.5301C59.5301 47.3356 59.4468 65.3502 59.4265 69.8691C59.4243 70.4376 59.8815 70.8997 60.4469 70.8997H63.7828C64.3459 70.8997 64.8031 70.4399 64.8031 69.8736V36.2976C64.8031 35.7313 64.3459 35.2715 63.7828 35.2715H57.1763C56.6831 35.2715 56.2619 35.6248 56.174 36.1118H56.1763Z" fill="white"/>
<path d="M214.204 44.9677L199.122 29.8004C198.063 28.7358 196.347 28.7358 195.288 29.8004L180.206 44.9677C179.147 46.0323 179.147 47.7584 180.206 48.823L183.01 51.6431C184.069 52.7077 185.785 52.7077 186.844 51.6431L192.311 46.1456C192.385 46.0708 192.509 46.1252 192.509 46.2294V73.5922C192.509 75.3816 194.66 76.2764 195.917 75.0124L199.37 71.54C200.989 69.9114 201.899 67.7006 201.899 65.3969V46.2294C201.899 46.1252 202.025 46.0731 202.098 46.1456L207.564 51.6431C208.623 52.7077 210.339 52.7077 211.398 51.6431L214.202 48.823C215.261 47.7584 215.261 46.0323 214.202 44.9677H214.204Z" fill="#D60B52"/>
<path d="M153.191 69.695L147.38 36.119C147.294 35.6274 146.871 35.2695 146.375 35.2695H140.12C139.625 35.2695 139.201 35.6274 139.116 36.119L133.304 69.695C133.196 70.3224 133.676 70.8978 134.309 70.8978H137.796C138.298 70.8978 138.724 70.5308 138.803 70.0348L139.708 64.338H146.783L147.688 70.0348C147.767 70.5331 148.195 70.8978 148.695 70.8978H152.182C152.815 70.8978 153.295 70.3224 153.187 69.695H153.191ZM140.566 59.0217L143.175 42.4523H143.323L145.932 59.0217H140.568H140.566Z" fill="white"/>
<path d="M111.398 69.695L105.587 36.119C105.501 35.6274 105.078 35.2695 104.582 35.2695H98.3273C97.8317 35.2695 97.4083 35.6274 97.3227 36.119L91.5114 69.695C91.4032 70.3224 91.883 70.8978 92.516 70.8978H96.0027C96.505 70.8978 96.9307 70.5308 97.0096 70.0348L97.9151 64.338H104.99L105.895 70.0348C105.974 70.5331 106.402 70.8978 106.902 70.8978H110.389C111.022 70.8978 111.502 70.3224 111.394 69.695H111.398ZM98.7732 59.0217L101.382 42.4523H101.53L104.139 59.0217H98.7755H98.7732Z" fill="white"/>
<path d="M91.8237 42.8826C91.8237 37.1836 89.301 35.2695 84.1564 35.2695H75.0093C74.4597 35.2695 74.0137 35.718 74.0137 36.2707V69.8966C74.0137 70.4493 74.4597 70.8978 75.0093 70.8978H79.3542C79.9038 70.8978 80.3498 70.4493 80.3498 69.8966V56.5323H84.1587C89.1591 56.5323 91.826 54.1381 91.826 48.7267V42.8849L91.8237 42.8826ZM85.5372 47.431C85.5372 50.4482 84.8231 51.2138 82.5865 51.2138H80.3475V40.3434H82.5865C84.8231 40.3434 85.5372 41.2064 85.5372 44.0786V47.4288V47.431Z" fill="white"/>
<path d="M124.49 35.2698H114.343C113.794 35.2698 113.348 35.7183 113.348 36.271V69.8969C113.348 70.4496 113.794 70.8981 114.343 70.8981H118.591C119.141 70.8981 119.587 70.4496 119.587 69.8969V56.5122H122.207C124.301 56.5122 125.112 57.5655 125.112 60.0073V69.8946C125.112 70.4473 125.558 70.8958 126.108 70.8958H130.356C130.905 70.8958 131.351 70.4473 131.351 69.8946V58.9541C131.351 55.3163 129.637 53.7828 127.781 53.0647C129.399 52.5845 131.351 51.0533 131.351 47.3181V42.0199C131.351 37.279 129.067 35.2676 124.495 35.2676L124.49 35.2698ZM125.11 47.8934C125.11 50.1903 124.349 51.4361 122.204 51.4361H119.585V40.0583H122.204C124.346 40.0583 125.11 40.9689 125.11 43.4107V47.8934Z" fill="white"/>
<path d="M173.175 47.32V42.0219C173.175 37.281 170.891 35.2695 166.319 35.2695H156.171C155.622 35.2695 155.176 35.718 155.176 36.2707V69.8966C155.176 70.4493 155.622 70.8978 156.171 70.8978H160.419C160.969 70.8978 161.415 70.4493 161.415 69.8966V56.5119H164.035C166.129 56.5119 166.94 57.5652 166.94 60.007V69.8943C166.94 70.447 167.386 70.8955 167.936 70.8955H172.184C172.734 70.8955 173.18 70.447 173.18 69.8943V58.9537C173.18 55.3159 171.465 53.7824 169.609 53.0644C171.227 52.5842 173.18 51.053 173.18 47.3178L173.175 47.32ZM166.938 47.8954C166.938 50.1922 166.177 51.438 164.032 51.438H161.413V40.0603H164.032C166.174 40.0603 166.938 40.9709 166.938 43.4127V47.8954Z" fill="white"/>
<path d="M22.3172 110.611L21.5401 95.3146C21.4275 93.0812 21.3734 90.3472 21.4275 87.5543H21.3171C20.8734 90.2339 20.3193 93.0812 19.817 95.3713L16.3212 110.668H12.0461L8.43764 95.4279C7.88129 93.1945 7.27088 90.2928 6.77084 87.6109H6.66047C6.77084 90.5692 6.71678 93.1945 6.60416 95.3713L5.88338 110.611H0L2.11054 74.9941H9.04806L12.9335 90.9044C13.5439 93.3055 14.1543 96.4313 14.544 98.8867H14.6544C15.0441 96.4313 15.6545 93.3598 16.2086 90.9044L19.9837 74.9941H26.3671L28.4754 110.611H22.3149H22.3172Z" fill="#D60B52"/>
<path d="M44.5249 110.611L42.9144 102.293H36.7539L35.0871 110.611H29.2578L36.6976 74.9941H43.4707L50.9105 110.611H44.5249ZM40.4727 89.1172C40.252 87.8895 40.029 86.3266 39.9186 84.9856H39.806C39.6956 86.381 39.4726 87.8895 39.2519 89.1172L37.6977 97.2105H41.9165L40.4727 89.1172Z" fill="#D60B52"/>
<path d="M52.043 110.611V74.9941H58.7057V110.611H52.043Z" fill="#D60B52"/>
<path d="M67.1275 111C64.9066 111 62.742 110.275 61.5212 109.381L60.9648 102.961C62.242 104.021 64.2399 104.916 66.0171 104.916C68.1254 104.916 69.2358 103.464 69.2358 101.398C69.2358 99.3326 68.5691 97.5454 66.2378 94.6981C62.9064 90.6798 61.2419 87.6649 61.2419 83.5333C61.2419 78.285 64.2962 74.5996 69.2358 74.5996C71.513 74.5996 73.6213 75.3245 74.4547 75.9949L73.4569 81.5785C72.7361 81.0756 71.459 80.5728 70.2922 80.5728C68.5713 80.5728 67.6816 81.6895 67.6816 83.531C67.6816 85.1506 68.4024 86.8245 70.2359 89.1146C73.788 93.4682 75.8422 96.8749 75.8422 101.285C75.8422 107.369 72.7338 110.998 67.1275 110.998V111Z" fill="#D60B52"/>
</g>
<defs>
<clipPath id="clip0_3229_12977">
<rect width="215" height="82" fill="white" transform="translate(0 29)"/>
</clipPath>
</defs>
</svg>
